<svg viewBox="0 0 10000 10000" xmlns="http://www.w3.org/2000/svg">
<path d="M0,0 l10000,0 l0,10000 l-10000,0 z" fill="white"/>
<path d="M4331,9467 l200,0 l0,476 l-200,0 z" fill="#d800ff" stroke="black" stroke-width="5"/>
<path d="M0,6885 l748,0 l0,3115 l-748,0 z" fill="#b900ff" stroke="black" stroke-width="5"/>
<path d="M1857,4838 l370,0 l0,1170 l-370,0 z" fill="#dc00ff" stroke="black" stroke-width="5"/>
<path d="M0,1043 l3882,0 l0,296 l-3882,0 z" fill="#c800ff" stroke="black" stroke-width="5"/>
<path d="M1925,504 l1885,0 l0,538 l-1885,0 z" fill="#ba00ff" stroke="black" stroke-width="5"/>
<path d="M6045,7179 l695,0 l0,780 l-695,0 z" fill="#d800ff" stroke="black" stroke-width="5"/>
<path d="M6455,293 l1215,0 l0,1387 l-1215,0 z" fill="#db00ff" stroke="black" stroke-width="5"/>
<path d="M454,5032 l1402,0 l0,1783 l-1402,0 z" fill="#d400ff" stroke="black" stroke-width="5"/>
<path d="M7199,6876 l2019,0 l0,811 l-2019,0 z" fill="#da00ff" stroke="black" stroke-width="5"/>
<path d="M5710,487 l130,0 l0,184 l-130,0 z" fill="#e100ff" stroke="black" stroke-width="5"/>
<path d="M2227,1339 l1676,0 l0,1936 l-1676,0 z" fill="#9c00ff" stroke="black" stroke-width="5"/>
<path d="M805,9265 l228,0 l0,534 l-228,0 z" fill="#d400ff" stroke="black" stroke-width="5"/>
<path d="M6664,4542 l3334,0 l0,842 l-3334,0 z" fill="#b900ff" stroke="black" stroke-width="5"/>
<path d="M3010,8158 l848,0 l0,273 l-848,0 z" fill="#dc00ff" stroke="black" stroke-width="5"/>
<path d="M6706,8480 l78,0 l0,73 l-78,0 z" fill="#dd00ff" stroke="black" stroke-width="5"/>
<path d="M2229,5492 l2104,0 l0,957 l-2104,0 z" fill="#d900ff" stroke="black" stroke-width="5"/>
<path d="M4341,4690 l836,0 l0,1104 l-836,0 z" fill="#da00ff" stroke="black" stroke-width="5"/>
<path d="M9459,9742 l320,0 l0,193 l-320,0 z" fill="#d800ff" stroke="black" stroke-width="5"/>
<path d="M1713,504 l208,0 l0,212 l-208,0 z" fill="#dc00ff" stroke="black" stroke-width="5"/>
<path d="M5242,5907 l617,0 l0,1520 l-617,0 z" fill="#d900ff" stroke="black" stroke-width="5"/>
<path d="M6874,3229 l536,0 l0,1140 l-536,0 z" fill="#d600ff" stroke="black" stroke-width="5"/>
<path d="M1818,2409 l408,0 l0,334 l-408,0 z" fill="#e300ff" stroke="black" stroke-width="5"/>
<path d="M7599,5385 l1106,0 l0,767 l-1106,0 z" fill="#db00ff" stroke="black" stroke-width="5"/>
<path d="M4352,5918 l883,0 l0,2543 l-883,0 z" fill="#da00ff" stroke="black" stroke-width="5"/>
<path d="M1062,8247 l764,0 l0,1748 l-764,0 z" fill="#d700ff" stroke="black" stroke-width="5"/>
<path d="M2255,4681 l1641,0 l0,810 l-1641,0 z" fill="#dc00ff" stroke="black" stroke-width="5"/>
<path d="M7023,7702 l1061,0 l0,1532 l-1061,0 z" fill="#db00ff" stroke="black" stroke-width="5"/>
<path d="M753,6821 l303,0 l0,2441 l-303,0 z" fill="#d400ff" stroke="black" stroke-width="5"/>
<path d="M5547,2425 l1318,0 l0,1251 l-1318,0 z" fill="#da00ff" stroke="black" stroke-width="5"/>
<path d="M2748,8528 l1575,0 l0,1469 l-1575,0 z" fill="#da00ff" stroke="black" stroke-width="5"/>
<path d="M5861,5899 l359,0 l0,429 l-359,0 z" fill="#da00ff" stroke="black" stroke-width="5"/>
<path d="M6648,7994 l371,0 l0,478 l-371,0 z" fill="#de00ff" stroke="black" stroke-width="5"/>
<path d="M5184,4655 l1407,0 l0,1232 l-1407,0 z" fill="#db00ff" stroke="black" stroke-width="5"/>
<path d="M5674,693 l739,0 l0,1703 l-739,0 z" fill="#d900ff" stroke="black" stroke-width="5"/>
<path d="M3908,582 l1764,0 l0,1406 l-1764,0 z" fill="#ae00ff" stroke="black" stroke-width="5"/>
<path d="M2,1339 l445,0 l0,5544 l-445,0 z" fill="#cc00ff" stroke="black" stroke-width="5"/>
<path d="M3910,2499 l1632,0 l0,2147 l-1632,0 z" fill="#db00ff" stroke="black" stroke-width="5"/>
<path d="M3925,1990 l1521,0 l0,504 l-1521,0 z" fill="#db00ff" stroke="black" stroke-width="5"/>
<path d="M7755,1602 l2038,0 l0,1450 l-2038,0 z" fill="#da00ff" stroke="black" stroke-width="5"/>
<path d="M7413,3056 l2582,0 l0,1486 l-2582,0 z" fill="#ae00ff" stroke="black" stroke-width="5"/>
<path d="M3811,0 l1898,0 l0,582 l-1898,0 z" fill="#1400ff" stroke="black" stroke-width="5"/>
<path d="M8101,7807 l1081,0 l0,1021 l-1081,0 z" fill="#dc00ff" stroke="black" stroke-width="5"/>
<path d="M1059,6831 l1499,0 l0,1370 l-1499,0 z" fill="#d700ff" stroke="black" stroke-width="5"/>
<path d="M2561,6451 l1787,0 l0,1686 l-1787,0 z" fill="#da00ff" stroke="black" stroke-width="5"/>
<path d="M7079,9249 l315,0 l0,350 l-315,0 z" fill="#d700ff" stroke="black" stroke-width="5"/>
<path d="M3102,3275 l800,0 l0,521 l-800,0 z" fill="#d800ff" stroke="black" stroke-width="5"/>
<path d="M8547,9816 l173,0 l0,77 l-173,0 z" fill="#e100ff" stroke="black" stroke-width="5"/>
<path d="M7840,6439 l842,0 l0,437 l-842,0 z" fill="#da00ff" stroke="black" stroke-width="5"/>
<path d="M1,0 l3810,0 l0,504 l-3810,0 z" fill="#4000ff" stroke="black" stroke-width="5"/>
<path d="M844,4401 l335,0 l0,626 l-335,0 z" fill="#d900ff" stroke="black" stroke-width="5"/>
<path d="M6410,3796 l266,0 l0,651 l-266,0 z" fill="#d200ff" stroke="black" stroke-width="5"/>
<path d="M1826,8225 l919,0 l0,1416 l-919,0 z" fill="#d900ff" stroke="black" stroke-width="5"/>
<path d="M4305,9790 l60,0 l0,60 l-60,0 z" fill="green"/>
<path d="M4335,9820 l96,-115" stroke="black" stroke-width="5"/>
<path d="M29,8198 l60,0 l0,60 l-60,0 z" fill="green"/>
<path d="M59,8228 l315,214.5" stroke="black" stroke-width="5"/>
<path d="M1828,5212 l60,0 l0,60 l-60,0 z" fill="green"/>
<path d="M1858,5242 l184,181" stroke="black" stroke-width="5"/>
<path d="M2338,1087 l60,0 l0,60 l-60,0 z" fill="green"/>
<path d="M2368,1117 l-427,74" stroke="black" stroke-width="5"/>
<path d="M2477,530 l60,0 l0,60 l-60,0 z" fill="green"/>
<path d="M2507,560 l360.5,213" stroke="black" stroke-width="5"/>
<path d="M6503,7679 l60,0 l0,60 l-60,0 z" fill="green"/>
<path d="M6533,7709 l-140.5,-140" stroke="black" stroke-width="5"/>
<path d="M6710,860 l60,0 l0,60 l-60,0 z" fill="green"/>
<path d="M6740,890 l322.5,96.5" stroke="black" stroke-width="5"/>
<path d="M1438,5634 l60,0 l0,60 l-60,0 z" fill="green"/>
<path d="M1468,5664 l-313,259.5" stroke="black" stroke-width="5"/>
<path d="M8266,7240 l60,0 l0,60 l-60,0 z" fill="green"/>
<path d="M8296,7270 l-87.5,11.5" stroke="black" stroke-width="5"/>
<path d="M5680,548 l60,0 l0,60 l-60,0 z" fill="green"/>
<path d="M5710,578 l65,1" stroke="black" stroke-width="5"/>
<path d="M3214,2300 l60,0 l0,60 l-60,0 z" fill="green"/>
<path d="M3244,2330 l-179,-23" stroke="black" stroke-width="5"/>
<path d="M969,9268 l60,0 l0,60 l-60,0 z" fill="green"/>
<path d="M999,9298 l-80,234" stroke="black" stroke-width="5"/>
<path d="M8352,4995 l60,0 l0,60 l-60,0 z" fill="green"/>
<path d="M8382,5025 l-51,-62" stroke="black" stroke-width="5"/>
<path d="M3698,8130 l60,0 l0,60 l-60,0 z" fill="green"/>
<path d="M3728,8160 l-294,134.5" stroke="black" stroke-width="5"/>
<path d="M6687,8480 l60,0 l0,60 l-60,0 z" fill="green"/>
<path d="M6717,8510 l28,6.5" stroke="black" stroke-width="5"/>
<path d="M3421,5497 l60,0 l0,60 l-60,0 z" fill="green"/>
<path d="M3451,5527 l-170,443.5" stroke="black" stroke-width="5"/>
<path d="M4653,5254 l60,0 l0,60 l-60,0 z" fill="green"/>
<path d="M4683,5284 l76,-42" stroke="black" stroke-width="5"/>
<path d="M9611,9823 l60,0 l0,60 l-60,0 z" fill="green"/>
<path d="M9641,9853 l-22,-14.5" stroke="black" stroke-width="5"/>
<path d="M1890,569 l60,0 l0,60 l-60,0 z" fill="green"/>
<path d="M1920,599 l-103,11" stroke="black" stroke-width="5"/>
<path d="M5533,5909 l60,0 l0,60 l-60,0 z" fill="green"/>
<path d="M5563,5939 l-12.5,728" stroke="black" stroke-width="5"/>
<path d="M7376,3428 l60,0 l0,60 l-60,0 z" fill="green"/>
<path d="M7406,3458 l-264,341" stroke="black" stroke-width="5"/>
<path d="M2195,2424 l60,0 l0,60 l-60,0 z" fill="green"/>
<path d="M2225,2454 l-203,122" stroke="black" stroke-width="5"/>
<path d="M8434,5358 l60,0 l0,60 l-60,0 z" fill="green"/>
<path d="M8464,5388 l-312,380.5" stroke="black" stroke-width="5"/>
<path d="M4758,6442 l60,0 l0,60 l-60,0 z" fill="green"/>
<path d="M4788,6472 l5.5,717.5" stroke="black" stroke-width="5"/>
<path d="M1420,8645 l60,0 l0,60 l-60,0 z" fill="green"/>
<path d="M1450,8675 l-6,446" stroke="black" stroke-width="5"/>
<path d="M3367,5448 l60,0 l0,60 l-60,0 z" fill="green"/>
<path d="M3397,5478 l-321.5,-392" stroke="black" stroke-width="5"/>
<path d="M7349,8003 l60,0 l0,60 l-60,0 z" fill="green"/>
<path d="M7379,8033 l174.5,435" stroke="black" stroke-width="5"/>
<path d="M913,8220 l60,0 l0,60 l-60,0 z" fill="green"/>
<path d="M943,8250 l-38.5,-208.5" stroke="black" stroke-width="5"/>
<path d="M5617,3479 l60,0 l0,60 l-60,0 z" fill="green"/>
<path d="M5647,3509 l559,-458.5" stroke="black" stroke-width="5"/>
<path d="M3184,9289 l60,0 l0,60 l-60,0 z" fill="green"/>
<path d="M3214,9319 l321.5,-56.5" stroke="black" stroke-width="5"/>
<path d="M5838,5905 l60,0 l0,60 l-60,0 z" fill="green"/>
<path d="M5868,5935 l172.5,178.5" stroke="black" stroke-width="5"/>
<path d="M6986,8195 l60,0 l0,60 l-60,0 z" fill="green"/>
<path d="M7016,8225 l-182.5,8" stroke="black" stroke-width="5"/>
<path d="M5185,5736 l60,0 l0,60 l-60,0 z" fill="green"/>
<path d="M5215,5766 l672.5,-495" stroke="black" stroke-width="5"/>
<path d="M5645,1095 l60,0 l0,60 l-60,0 z" fill="green"/>
<path d="M5675,1125 l368.5,419.5" stroke="black" stroke-width="5"/>
<path d="M4404,1456 l60,0 l0,60 l-60,0 z" fill="green"/>
<path d="M4434,1486 l356,-201" stroke="black" stroke-width="5"/>
<path d="M103,4817 l60,0 l0,60 l-60,0 z" fill="green"/>
<path d="M133,4847 l91.5,-736" stroke="black" stroke-width="5"/>
<path d="M5093,3770 l60,0 l0,60 l-60,0 z" fill="green"/>
<path d="M5123,3800 l-397,-227.5" stroke="black" stroke-width="5"/>
<path d="M4410,1963 l60,0 l0,60 l-60,0 z" fill="green"/>
<path d="M4440,1993 l245.5,249" stroke="black" stroke-width="5"/>
<path d="M9015,3018 l60,0 l0,60 l-60,0 z" fill="green"/>
<path d="M9045,3048 l-271,-721" stroke="black" stroke-width="5"/>
<path d="M8960,3194 l60,0 l0,60 l-60,0 z" fill="green"/>
<path d="M8990,3224 l-286,575" stroke="black" stroke-width="5"/>
<path d="M5146,511 l60,0 l0,60 l-60,0 z" fill="green"/>
<path d="M5176,541 l-416,-250" stroke="black" stroke-width="5"/>
<path d="M8111,7869 l60,0 l0,60 l-60,0 z" fill="green"/>
<path d="M8141,7899 l500.5,418.5" stroke="black" stroke-width="5"/>
<path d="M1695,6898 l60,0 l0,60 l-60,0 z" fill="green"/>
<path d="M1725,6928 l83.5,588" stroke="black" stroke-width="5"/>
<path d="M3880,6602 l60,0 l0,60 l-60,0 z" fill="green"/>
<path d="M3910,6632 l-455.5,662" stroke="black" stroke-width="5"/>
<path d="M7096,9259 l60,0 l0,60 l-60,0 z" fill="green"/>
<path d="M7126,9289 l110.5,135" stroke="black" stroke-width="5"/>
<path d="M3748,3247 l60,0 l0,60 l-60,0 z" fill="green"/>
<path d="M3778,3277 l-276,258.5" stroke="black" stroke-width="5"/>
<path d="M8606,9837 l60,0 l0,60 l-60,0 z" fill="green"/>
<path d="M8636,9867 l-2.5,-12.5" stroke="black" stroke-width="5"/>
<path d="M7896,6845 l60,0 l0,60 l-60,0 z" fill="green"/>
<path d="M7926,6875 l335,-217.5" stroke="black" stroke-width="5"/>
<path d="M2478,44 l60,0 l0,60 l-60,0 z" fill="green"/>
<path d="M2508,74 l-602,178" stroke="black" stroke-width="5"/>
<path d="M935,4992 l60,0 l0,60 l-60,0 z" fill="green"/>
<path d="M965,5022 l46.5,-308" stroke="black" stroke-width="5"/>
<path d="M6633,4025 l60,0 l0,60 l-60,0 z" fill="green"/>
<path d="M6663,4055 l-120,66.5" stroke="black" stroke-width="5"/>
<path d="M1833,8376 l60,0 l0,60 l-60,0 z" fill="green"/>
<path d="M1863,8406 l422.5,527" stroke="black" stroke-width="5"/>
<text font-size="196.116135138184" text-anchor="middle" x="4431" y="9773.640647298364">
0
</text>
<text font-size="196.116135138184" text-anchor="middle" x="374" y="8511.140647298364">
1
</text>
<text font-size="196.116135138184" text-anchor="middle" x="2042" y="5491.6406472983645">
2
</text>
<text font-size="196.116135138184" text-anchor="middle" x="1941" y="1259.6406472983645">
3
</text>
<text font-size="196.116135138184" text-anchor="middle" x="2867.5" y="841.6406472983645">
4
</text>
<text font-size="196.116135138184" text-anchor="middle" x="6392.5" y="7637.6406472983645">
5
</text>
<text font-size="196.116135138184" text-anchor="middle" x="7062.5" y="1055.1406472983645">
6
</text>
<text font-size="196.116135138184" text-anchor="middle" x="1155" y="5992.1406472983645">
7
</text>
<text font-size="196.116135138184" text-anchor="middle" x="8208.5" y="7350.1406472983645">
8
</text>
<text font-size="196.116135138184" text-anchor="middle" x="5775" y="647.6406472983645">
9
</text>
<text font-size="196.116135138184" text-anchor="middle" x="3065" y="2375.6406472983645">
10
</text>
<text font-size="196.116135138184" text-anchor="middle" x="919" y="9600.640647298364">
11
</text>
<text font-size="196.116135138184" text-anchor="middle" x="8331" y="5031.6406472983645">
12
</text>
<text font-size="196.116135138184" text-anchor="middle" x="3434" y="8363.140647298364">
13
</text>
<text font-size="196.116135138184" text-anchor="middle" x="6745" y="8585.140647298364">
14
</text>
<text font-size="196.116135138184" text-anchor="middle" x="3281" y="6039.1406472983645">
15
</text>
<text font-size="196.116135138184" text-anchor="middle" x="4759" y="5310.6406472983645">
16
</text>
<text font-size="196.116135138184" text-anchor="middle" x="9619" y="9907.140647298364">
17
</text>
<text font-size="196.116135138184" text-anchor="middle" x="1817" y="678.6406472983645">
18
</text>
<text font-size="196.116135138184" text-anchor="middle" x="5550.5" y="6735.6406472983645">
19
</text>
<text font-size="196.116135138184" text-anchor="middle" x="7142" y="3867.6406472983645">
20
</text>
<text font-size="196.116135138184" text-anchor="middle" x="2022" y="2644.6406472983645">
21
</text>
<text font-size="196.116135138184" text-anchor="middle" x="8152" y="5837.1406472983645">
22
</text>
<text font-size="196.116135138184" text-anchor="middle" x="4793.5" y="7258.1406472983645">
23
</text>
<text font-size="196.116135138184" text-anchor="middle" x="1444" y="9189.640647298364">
24
</text>
<text font-size="196.116135138184" text-anchor="middle" x="3075.5" y="5154.6406472983645">
25
</text>
<text font-size="196.116135138184" text-anchor="middle" x="7553.5" y="8536.640647298364">
26
</text>
<text font-size="196.116135138184" text-anchor="middle" x="904.5" y="8110.1406472983645">
27
</text>
<text font-size="196.116135138184" text-anchor="middle" x="6206" y="3119.1406472983645">
28
</text>
<text font-size="196.116135138184" text-anchor="middle" x="3535.5" y="9331.140647298364">
29
</text>
<text font-size="196.116135138184" text-anchor="middle" x="6040.5" y="6182.1406472983645">
30
</text>
<text font-size="196.116135138184" text-anchor="middle" x="6833.5" y="8301.640647298364">
31
</text>
<text font-size="196.116135138184" text-anchor="middle" x="5887.5" y="5339.6406472983645">
32
</text>
<text font-size="196.116135138184" text-anchor="middle" x="6043.5" y="1613.1406472983645">
33
</text>
<text font-size="196.116135138184" text-anchor="middle" x="4790" y="1353.6406472983645">
34
</text>
<text font-size="196.116135138184" text-anchor="middle" x="224.5" y="4179.6406472983645">
35
</text>
<text font-size="196.116135138184" text-anchor="middle" x="4726" y="3641.1406472983645">
36
</text>
<text font-size="196.116135138184" text-anchor="middle" x="4685.5" y="2310.6406472983645">
37
</text>
<text font-size="196.116135138184" text-anchor="middle" x="8774" y="2395.6406472983645">
38
</text>
<text font-size="196.116135138184" text-anchor="middle" x="8704" y="3867.6406472983645">
39
</text>
<text font-size="196.116135138184" text-anchor="middle" x="4760" y="359.6406472983644">
40
</text>
<text font-size="196.116135138184" text-anchor="middle" x="8641.5" y="8386.140647298364">
41
</text>
<text font-size="196.116135138184" text-anchor="middle" x="1808.5" y="7584.6406472983645">
42
</text>
<text font-size="196.116135138184" text-anchor="middle" x="3454.5" y="7362.6406472983645">
43
</text>
<text font-size="196.116135138184" text-anchor="middle" x="7236.5" y="9492.640647298364">
44
</text>
<text font-size="196.116135138184" text-anchor="middle" x="3502" y="3604.1406472983645">
45
</text>
<text font-size="196.116135138184" text-anchor="middle" x="8633.5" y="9923.140647298364">
46
</text>
<text font-size="196.116135138184" text-anchor="middle" x="8261" y="6726.1406472983645">
47
</text>
<text font-size="196.116135138184" text-anchor="middle" x="1906" y="320.6406472983644">
48
</text>
<text font-size="196.116135138184" text-anchor="middle" x="1011.5" y="4782.6406472983645">
49
</text>
<text font-size="196.116135138184" text-anchor="middle" x="6543" y="4190.1406472983645">
50
</text>
<text font-size="196.116135138184" text-anchor="middle" x="2285.5" y="9001.640647298364">
51
</text>
</svg>